<svg id="Layer_1" data-name="Layer 1" xmlns="http://www.w3.org/2000/svg" viewBox="0 0 122.88 107.56"><defs><style>.cls-1{fill:#486aae;}</style></defs><title>tata</title><path class="cls-1" d="M0,76.92H29.58v9H21.1v21.63H8.77V85.93H0v-9ZM52.93,29.1c.75-5.07.65-7.72-6.78-7.31A162.78,162.78,0,0,0,16,25.73a21.3,21.3,0,0,0-.61,5c0,5.83,2.38,11.47,6.86,16.32a42.94,42.94,0,0,0,16.6,10.56,59.1,59.1,0,0,0,7.73,2.25c.5-2,3.68-15,6.2-30l.11-.78Zm54-3.37a162.8,162.8,0,0,0-30.1-3.94C69.38,21.38,69.29,24,70,29.1l.18,1.15C72.7,45,75.8,57.71,76.34,59.87c18.11-4.14,31.18-15.62,31.18-29.11a21.83,21.83,0,0,0-.6-5ZM105,20.65a27.52,27.52,0,0,0-4.37-6.21A42.83,42.83,0,0,0,84.07,3.88,65.67,65.67,0,0,0,61.48,0,65.59,65.59,0,0,0,38.89,3.88a42.94,42.94,0,0,0-16.6,10.56,27.61,27.61,0,0,0-4.37,6.21c8.84-2.13,24-5,38-5.26a3.36,3.36,0,0,1,2.9,1.19c.75.94.7,4.32.68,5.83l-.4,39.06c.79,0,1.58.05,2.38.05s1.6,0,2.39,0l-.4-39.07c0-1.51-.08-4.89.67-5.83A3.39,3.39,0,0,1,67,15.39c14,.3,29.15,3.12,38,5.26ZM104.6,89.3l-6.24,18.26H86.53L98.14,76.92H111l11.89,30.64h-12L104.6,89.3ZM60,76.92H89.61v9H81.12v21.63H68.8V85.93H60v-9ZM44.56,89.3l-6.22,18.26H26.5L38.11,76.92H51l11.89,30.64h-12L44.56,89.3Z"/></svg>